<?xml version="1.0" encoding="utf-8"?>
<!-- Generator: Adobe Illustrator 23.0.3, SVG Export Plug-In . SVG Version: 6.00 Build 0)  -->
<svg version="1.1" id="Layer_1" xmlns="http://www.w3.org/2000/svg" xmlns:xlink="http://www.w3.org/1999/xlink" x="0px" y="0px"
	 viewBox="0 0 222.2 200" style="enable-background:new 0 0 222.2 200;" xml:space="preserve">
<style type="text/css">
	.st0{fill:url(#SVGID_1_);}
	.st1{fill:url(#SVGID_2_);}
	.st2{fill:url(#SVGID_3_);}
	.st3{fill:url(#SVGID_4_);}
	.st4{fill:url(#SVGID_5_);}
	.st5{fill:url(#SVGID_6_);}
	.st6{fill:url(#SVGID_7_);}
	.st7{fill:url(#SVGID_8_);}
	.st8{fill:url(#SVGID_9_);}
	.st9{fill:url(#SVGID_10_);}
	.st10{fill:url(#SVGID_11_);}
	.st11{fill:url(#SVGID_12_);}
	.st12{fill:url(#SVGID_13_);}
	.st13{fill:url(#SVGID_14_);}
	.st14{fill:url(#SVGID_15_);}
	.st15{fill:url(#SVGID_16_);}
	.st16{fill:url(#SVGID_17_);}
</style>
<linearGradient id="SVGID_1_" gradientUnits="userSpaceOnUse" x1="32.3149" y1="48.0313" x2="90.2792" y2="118.5982">
	<stop  offset="0" style="stop-color:#14AAFF"/>
	<stop  offset="1" style="stop-color:#0A3CF0"/>
</linearGradient>
<polygon class="st0" points="68.6,75.5 68.6,123.1 92.9,123.1 92.9,91 92.9,91 "/>
<linearGradient id="SVGID_2_" gradientUnits="userSpaceOnUse" x1="63.306" y1="21.3389" x2="121.2478" y2="91.8783">
	<stop  offset="0" style="stop-color:#14AAFF"/>
	<stop  offset="1" style="stop-color:#0A3CF0"/>
</linearGradient>
<polygon class="st1" points="67.6,37.6 67.6,67.2 157.9,125.5 157.9,95.9 "/>
<linearGradient id="SVGID_3_" gradientUnits="userSpaceOnUse" x1="96.2522" y1="-3.0619" x2="153.1158" y2="66.165">
	<stop  offset="0" style="stop-color:#14AAFF"/>
	<stop  offset="1" style="stop-color:#0A3CF0"/>
</linearGradient>
<polygon class="st2" points="158.9,37.6 122.1,64 158.9,87.6 "/>
<g>
	<linearGradient id="SVGID_4_" gradientUnits="userSpaceOnUse" x1="-5.4811" y1="140.8209" x2="66.3245" y2="181.2932">
		<stop  offset="0" style="stop-color:#14AAFF"/>
		<stop  offset="1" style="stop-color:#0A3CF0"/>
	</linearGradient>
	<polygon class="st3" points="25.7,161.6 25.7,146.8 22.7,146.8 18.2,155.2 13.9,146.8 10.8,146.8 10.8,161.6 13.6,161.6 
		13.6,151.8 17.5,159.1 19,159.1 22.8,151.8 22.8,161.6 	"/>
	<linearGradient id="SVGID_5_" gradientUnits="userSpaceOnUse" x1="-2.4195" y1="135.389" x2="69.3862" y2="175.8613">
		<stop  offset="0" style="stop-color:#14AAFF"/>
		<stop  offset="1" style="stop-color:#0A3CF0"/>
	</linearGradient>
	<path class="st4" d="M35,146.8h-2.5l-5.7,14.8h3l1.4-3.7h5.2l1.4,3.7h3L35,146.8z M31.6,155.9l2.1-5.8l2,5.8H31.6z"/>
	<linearGradient id="SVGID_6_" gradientUnits="userSpaceOnUse" x1="1.3178" y1="128.7582" x2="73.1235" y2="169.2305">
		<stop  offset="0" style="stop-color:#14AAFF"/>
		<stop  offset="1" style="stop-color:#0A3CF0"/>
	</linearGradient>
	<path class="st5" d="M51.9,159.4c0.3-0.6,0.4-1.2,0.4-2c0-0.7-0.1-1.3-0.3-1.7c-0.2-0.5-0.5-0.9-0.9-1.2c-0.4-0.3-0.9-0.6-1.5-0.8
		c-0.6-0.2-1.2-0.4-2-0.6c-0.6-0.1-1-0.3-1.5-0.4c-0.4-0.1-0.8-0.3-1.1-0.4c-0.3-0.2-0.5-0.3-0.6-0.5c-0.1-0.2-0.2-0.5-0.2-0.8
		c0-0.5,0.2-0.9,0.6-1.2c0.4-0.3,1-0.4,1.8-0.4c0.4,0,0.9,0.1,1.3,0.2c0.4,0.1,0.8,0.2,1.2,0.4c0.4,0.2,0.7,0.3,0.9,0.5
		c0.3,0.2,0.4,0.3,0.5,0.4l1.3-2.3c-0.7-0.4-1.4-0.8-2.3-1.2c-0.9-0.3-1.8-0.5-2.9-0.5c-0.8,0-1.5,0.1-2.1,0.3
		c-0.7,0.2-1.2,0.5-1.7,0.9c-0.5,0.4-0.9,0.9-1.2,1.5s-0.4,1.3-0.4,2c0,0.6,0.1,1.1,0.3,1.5c0.2,0.4,0.4,0.8,0.8,1.1
		s0.8,0.6,1.3,0.8c0.5,0.2,1.1,0.4,1.8,0.6c0.6,0.2,1.1,0.3,1.6,0.5c0.5,0.1,0.9,0.3,1.2,0.5c0.3,0.2,0.6,0.4,0.8,0.6
		c0.2,0.2,0.3,0.5,0.3,0.8c0,1-0.8,1.5-2.4,1.5c-0.6,0-1.1-0.1-1.7-0.2c-0.5-0.1-1-0.3-1.5-0.5c-0.4-0.2-0.8-0.4-1.2-0.6
		c-0.3-0.2-0.6-0.4-0.7-0.5l-1.3,2.5c0.9,0.6,1.8,1.1,2.9,1.4c1.1,0.3,2.2,0.5,3.3,0.5c0.7,0,1.4-0.1,2.1-0.2
		c0.7-0.2,1.2-0.4,1.8-0.8C51.2,160.4,51.6,160,51.9,159.4z"/>
	<linearGradient id="SVGID_7_" gradientUnits="userSpaceOnUse" x1="4.903" y1="122.3976" x2="76.7086" y2="162.8698">
		<stop  offset="0" style="stop-color:#14AAFF"/>
		<stop  offset="1" style="stop-color:#0A3CF0"/>
	</linearGradient>
	<polygon class="st6" points="52.8,149.3 57.5,149.3 57.5,161.6 60.4,161.6 60.4,149.3 65.1,149.3 65.1,146.8 52.8,146.8 	"/>
	<linearGradient id="SVGID_8_" gradientUnits="userSpaceOnUse" x1="7.3512" y1="118.0538" x2="79.1569" y2="158.5261">
		<stop  offset="0" style="stop-color:#14AAFF"/>
		<stop  offset="1" style="stop-color:#0A3CF0"/>
	</linearGradient>
	<polygon class="st7" points="69.3,155.2 75.5,155.2 75.5,152.9 69.3,152.9 69.3,149.3 76.5,149.3 76.5,146.8 66.4,146.8 
		66.4,161.6 76.7,161.6 76.7,159.1 69.3,159.1 	"/>
	<linearGradient id="SVGID_9_" gradientUnits="userSpaceOnUse" x1="9.9577" y1="113.4295" x2="81.7633" y2="153.9018">
		<stop  offset="0" style="stop-color:#14AAFF"/>
		<stop  offset="1" style="stop-color:#0A3CF0"/>
	</linearGradient>
	<path class="st8" d="M89,154.3c0.5-0.8,0.7-1.7,0.7-2.6c0-0.6-0.1-1.2-0.4-1.8c-0.2-0.6-0.6-1.1-1-1.6c-0.4-0.5-0.9-0.8-1.5-1.1
		c-0.6-0.3-1.2-0.4-1.9-0.4h-6.5v14.8h2.9v-5h2.8l3,5h3.2L87,156C87.8,155.7,88.5,155.1,89,154.3z M86.6,152.6
		c-0.1,0.3-0.2,0.5-0.4,0.8c-0.2,0.2-0.4,0.4-0.6,0.5c-0.2,0.1-0.5,0.2-0.7,0.2h-3.6v-4.8h3.5c0.3,0,0.5,0.1,0.7,0.2
		c0.2,0.1,0.5,0.3,0.6,0.5c0.2,0.2,0.3,0.5,0.4,0.8c0.1,0.3,0.2,0.6,0.2,1C86.8,152,86.7,152.4,86.6,152.6z"/>
	<linearGradient id="SVGID_10_" gradientUnits="userSpaceOnUse" x1="68.7538" y1="134.4222" x2="149.1741" y2="179.75">
		<stop  offset="0" style="stop-color:#14AAFF"/>
		<stop  offset="1" style="stop-color:#0A3CF0"/>
	</linearGradient>
	<polygon class="st9" points="108.5,159 98.8,146.9 97.7,146.9 97.7,161.5 99.2,161.5 99.2,149.6 108.7,161.5 109.9,161.5 
		109.9,146.9 108.5,146.9 	"/>
	<linearGradient id="SVGID_11_" gradientUnits="userSpaceOnUse" x1="72.402" y1="127.9496" x2="152.8223" y2="173.2774">
		<stop  offset="0" style="stop-color:#14AAFF"/>
		<stop  offset="1" style="stop-color:#0A3CF0"/>
	</linearGradient>
	<path class="st10" d="M123.9,149.1c-0.6-0.7-1.3-1.3-2.2-1.7c-0.8-0.4-1.8-0.6-2.8-0.6c-1,0-1.9,0.2-2.7,0.6
		c-0.8,0.4-1.6,0.9-2.2,1.6c-0.6,0.7-1.1,1.5-1.4,2.4c-0.3,0.9-0.5,1.8-0.5,2.8c0,0.9,0.2,1.8,0.5,2.7c0.3,0.9,0.8,1.7,1.4,2.4
		c0.6,0.7,1.3,1.2,2.2,1.7c0.8,0.4,1.8,0.6,2.8,0.6c1,0,1.9-0.2,2.7-0.6c0.8-0.4,1.6-0.9,2.2-1.6c0.6-0.7,1.1-1.5,1.4-2.4
		c0.3-0.9,0.5-1.8,0.5-2.8c0-0.9-0.2-1.8-0.5-2.7C125,150.6,124.5,149.8,123.9,149.1z M124,156.4c-0.3,0.7-0.6,1.4-1.1,2
		c-0.5,0.6-1,1-1.7,1.4c-0.7,0.4-1.4,0.5-2.2,0.5c-0.8,0-1.5-0.2-2.2-0.5c-0.7-0.3-1.2-0.8-1.7-1.4c-0.5-0.6-0.8-1.2-1.1-2
		c-0.3-0.7-0.4-1.5-0.4-2.3c0-0.8,0.1-1.5,0.4-2.2c0.3-0.7,0.6-1.4,1.1-2c0.5-0.6,1-1,1.7-1.4c0.7-0.3,1.4-0.5,2.2-0.5
		c0.8,0,1.5,0.2,2.2,0.5c0.7,0.3,1.2,0.8,1.7,1.3c0.5,0.6,0.9,1.2,1.1,1.9c0.3,0.7,0.4,1.5,0.4,2.3
		C124.4,154.9,124.2,155.7,124,156.4z"/>
	<linearGradient id="SVGID_12_" gradientUnits="userSpaceOnUse" x1="75.4353" y1="122.5679" x2="155.8556" y2="167.8957">
		<stop  offset="0" style="stop-color:#14AAFF"/>
		<stop  offset="1" style="stop-color:#0A3CF0"/>
	</linearGradient>
	<path class="st11" d="M138.2,149c-0.6-0.7-1.3-1.2-2.2-1.6c-0.9-0.4-1.9-0.6-3.1-0.6h-5v14.6h5c1.1,0,2-0.2,2.9-0.5
		c0.9-0.3,1.6-0.8,2.2-1.5c0.6-0.6,1.1-1.4,1.4-2.3c0.3-0.9,0.5-1.9,0.5-3c0-1-0.1-1.9-0.4-2.8C139.2,150.5,138.8,149.7,138.2,149z
		 M138.1,156.6c-0.2,0.7-0.6,1.4-1.1,1.9c-0.5,0.5-1,1-1.7,1.3c-0.7,0.3-1.5,0.5-2.4,0.5h-3.5v-12h3.5c0.9,0,1.7,0.1,2.4,0.4
		c0.7,0.3,1.3,0.7,1.7,1.2c0.5,0.5,0.8,1.2,1.1,1.9c0.2,0.7,0.4,1.5,0.4,2.4C138.5,155,138.4,155.8,138.1,156.6z"/>
	<linearGradient id="SVGID_13_" gradientUnits="userSpaceOnUse" x1="79.1634" y1="115.9535" x2="159.5837" y2="161.2813">
		<stop  offset="0" style="stop-color:#14AAFF"/>
		<stop  offset="1" style="stop-color:#0A3CF0"/>
	</linearGradient>
	<polygon class="st12" points="143.6,154.6 150.8,154.6 150.8,153.4 143.6,153.4 143.6,148.2 151.8,148.2 151.8,146.9 142.2,146.9 
		142.2,161.5 152,161.5 152,160.2 143.6,160.2 	"/>
	<linearGradient id="SVGID_14_" gradientUnits="userSpaceOnUse" x1="83.3858" y1="108.4621" x2="163.8061" y2="153.7899">
		<stop  offset="0" style="stop-color:#14AAFF"/>
		<stop  offset="1" style="stop-color:#0A3CF0"/>
	</linearGradient>
	<path class="st13" d="M170.1,148.3c-0.4-0.4-0.8-0.8-1.4-1c-0.5-0.3-1.1-0.4-1.7-0.4h-6v14.6h1.4v-5.4h4.7c0.6,0,1.2-0.1,1.7-0.4
		c0.5-0.3,1-0.6,1.3-1c0.4-0.4,0.7-0.9,0.9-1.5c0.2-0.6,0.3-1.1,0.3-1.7c0-0.6-0.1-1.1-0.3-1.7C170.8,149.3,170.5,148.8,170.1,148.3
		z M169.7,152.7c-0.1,0.4-0.3,0.8-0.6,1.1c-0.2,0.3-0.5,0.6-0.9,0.7c-0.3,0.2-0.7,0.3-1.2,0.3h-4.7v-6.7h4.5c0.4,0,0.8,0.1,1.1,0.3
		c0.4,0.2,0.7,0.4,0.9,0.7c0.3,0.3,0.5,0.7,0.6,1.1s0.2,0.8,0.2,1.3C169.9,151.9,169.8,152.3,169.7,152.7z"/>
	<linearGradient id="SVGID_15_" gradientUnits="userSpaceOnUse" x1="86.9048" y1="102.2187" x2="167.3251" y2="147.5465">
		<stop  offset="0" style="stop-color:#14AAFF"/>
		<stop  offset="1" style="stop-color:#0A3CF0"/>
	</linearGradient>
	<path class="st14" d="M184.1,149.1c-0.6-0.7-1.3-1.3-2.2-1.7c-0.8-0.4-1.8-0.6-2.8-0.6c-1,0-1.9,0.2-2.7,0.6
		c-0.8,0.4-1.6,0.9-2.2,1.6s-1.1,1.5-1.4,2.4c-0.3,0.9-0.5,1.8-0.5,2.8c0,0.9,0.2,1.8,0.5,2.7c0.3,0.9,0.8,1.7,1.4,2.4
		c0.6,0.7,1.3,1.2,2.2,1.7c0.8,0.4,1.8,0.6,2.8,0.6c1,0,1.9-0.2,2.7-0.6c0.8-0.4,1.6-0.9,2.2-1.6c0.6-0.7,1.1-1.5,1.4-2.4
		c0.3-0.9,0.5-1.8,0.5-2.8c0-0.9-0.2-1.8-0.5-2.7C185.1,150.6,184.7,149.8,184.1,149.1z M184.1,156.4c-0.3,0.7-0.6,1.4-1.1,2
		c-0.5,0.6-1,1-1.7,1.4c-0.7,0.4-1.4,0.5-2.2,0.5c-0.8,0-1.5-0.2-2.2-0.5c-0.7-0.3-1.2-0.8-1.7-1.4c-0.5-0.6-0.8-1.2-1.1-2
		c-0.3-0.7-0.4-1.5-0.4-2.3c0-0.8,0.1-1.5,0.4-2.2c0.3-0.7,0.6-1.4,1.1-2c0.5-0.6,1-1,1.7-1.4c0.7-0.3,1.4-0.5,2.2-0.5
		c0.8,0,1.5,0.2,2.2,0.5c0.7,0.3,1.2,0.8,1.7,1.3c0.5,0.6,0.9,1.2,1.1,1.9c0.3,0.7,0.4,1.5,0.4,2.3
		C184.5,154.9,184.4,155.7,184.1,156.4z"/>
	<linearGradient id="SVGID_16_" gradientUnits="userSpaceOnUse" x1="90.5021" y1="95.8364" x2="170.9224" y2="141.1642">
		<stop  offset="0" style="stop-color:#14AAFF"/>
		<stop  offset="1" style="stop-color:#0A3CF0"/>
	</linearGradient>
	<path class="st15" d="M199,149.1c-0.6-0.7-1.3-1.3-2.2-1.7c-0.8-0.4-1.8-0.6-2.8-0.6c-1,0-1.9,0.2-2.7,0.6
		c-0.8,0.4-1.6,0.9-2.2,1.6c-0.6,0.7-1.1,1.5-1.4,2.4c-0.3,0.9-0.5,1.8-0.5,2.8c0,0.9,0.2,1.8,0.5,2.7c0.3,0.9,0.8,1.7,1.4,2.4
		c0.6,0.7,1.3,1.2,2.2,1.7c0.8,0.4,1.8,0.6,2.8,0.6c1,0,1.9-0.2,2.7-0.6c0.8-0.4,1.6-0.9,2.2-1.6c0.6-0.7,1.1-1.5,1.4-2.4
		c0.3-0.9,0.5-1.8,0.5-2.8c0-0.9-0.2-1.8-0.5-2.7C200.1,150.6,199.6,149.8,199,149.1z M199.1,156.4c-0.3,0.7-0.6,1.4-1.1,2
		c-0.5,0.6-1,1-1.7,1.4c-0.7,0.4-1.4,0.5-2.2,0.5c-0.8,0-1.5-0.2-2.2-0.5c-0.7-0.3-1.2-0.8-1.7-1.4c-0.5-0.6-0.8-1.2-1.1-2
		c-0.3-0.7-0.4-1.5-0.4-2.3c0-0.8,0.1-1.5,0.4-2.2c0.3-0.7,0.6-1.4,1.1-2c0.5-0.6,1-1,1.7-1.4c0.7-0.3,1.4-0.5,2.2-0.5
		c0.8,0,1.5,0.2,2.2,0.5c0.7,0.3,1.2,0.8,1.7,1.3s0.9,1.2,1.1,1.9c0.3,0.7,0.4,1.5,0.4,2.3C199.4,154.9,199.3,155.7,199.1,156.4z"/>
	<linearGradient id="SVGID_17_" gradientUnits="userSpaceOnUse" x1="92.8586" y1="91.6555" x2="173.2789" y2="136.9833">
		<stop  offset="0" style="stop-color:#14AAFF"/>
		<stop  offset="1" style="stop-color:#0A3CF0"/>
	</linearGradient>
	<polygon class="st16" points="204.5,160.2 204.5,146.9 203.1,146.9 203.1,161.5 212.9,161.5 212.9,160.2 	"/>
</g>
</svg>
