<?xml version="1.0" encoding="utf-8"?>
<!-- Generator: Adobe Illustrator 23.0.3, SVG Export Plug-In . SVG Version: 6.00 Build 0)  -->
<svg version="1.1" id="Layer_1" xmlns="http://www.w3.org/2000/svg" xmlns:xlink="http://www.w3.org/1999/xlink" x="0px" y="0px"
	 viewBox="0 0 222.2 200" style="enable-background:new 0 0 222.2 200;" xml:space="preserve">
<style type="text/css">
	.st0{fill:url(#SVGID_1_);}
	.st1{fill:url(#SVGID_2_);}
	.st2{fill:url(#SVGID_3_);}
	.st3{fill:url(#SVGID_4_);}
	.st4{fill:url(#SVGID_5_);}
	.st5{fill:url(#SVGID_6_);}
	.st6{fill:url(#SVGID_7_);}
	.st7{fill:url(#SVGID_8_);}
	.st8{fill:url(#SVGID_9_);}
	.st9{fill:url(#SVGID_10_);}
	.st10{fill:url(#SVGID_11_);}
	.st11{fill:url(#SVGID_12_);}
	.st12{fill:url(#SVGID_13_);}
	.st13{fill:url(#SVGID_14_);}
	.st14{fill:url(#SVGID_15_);}
	.st15{fill:url(#SVGID_16_);}
	.st16{fill:url(#SVGID_17_);}
</style>
<linearGradient id="SVGID_1_" gradientUnits="userSpaceOnUse" x1="32.289" y1="151.8372" x2="90.2533" y2="81.2703" gradientTransform="matrix(1 0 0 -1 0 199.8898)">
	<stop  offset="0" style="stop-color:#14AAFF"/>
	<stop  offset="1" style="stop-color:#0A3CF0"/>
</linearGradient>
<polygon class="st0" points="68.6,75.5 68.6,123.1 92.9,123.1 92.9,91 92.9,91 "/>
<linearGradient id="SVGID_2_" gradientUnits="userSpaceOnUse" x1="63.2976" y1="178.544" x2="121.2394" y2="108.0046" gradientTransform="matrix(1 0 0 -1 0 199.8898)">
	<stop  offset="0" style="stop-color:#14AAFF"/>
	<stop  offset="1" style="stop-color:#0A3CF0"/>
</linearGradient>
<polygon class="st1" points="67.6,37.6 67.6,67.2 157.9,125.5 157.9,95.9 "/>
<linearGradient id="SVGID_3_" gradientUnits="userSpaceOnUse" x1="96.2553" y1="202.9542" x2="153.1189" y2="133.7273" gradientTransform="matrix(1 0 0 -1 0 199.8898)">
	<stop  offset="0" style="stop-color:#14AAFF"/>
	<stop  offset="1" style="stop-color:#0A3CF0"/>
</linearGradient>
<polygon class="st2" points="158.9,37.6 122.1,64 158.9,87.6 "/>
<g>
	
		<linearGradient id="SVGID_4_" gradientUnits="userSpaceOnUse" x1="-0.488" y1="59.0663" x2="71.3176" y2="18.594" gradientTransform="matrix(1 0 0 -1 0 199.8898)">
		<stop  offset="0" style="stop-color:#14AAFF"/>
		<stop  offset="1" style="stop-color:#0A3CF0"/>
	</linearGradient>
	<polygon class="st3" points="30.7,161.6 30.7,146.8 27.7,146.8 23.2,155.2 18.9,146.8 15.8,146.8 15.8,161.6 18.6,161.6 
		18.6,151.8 22.5,159.1 24,159.1 27.8,151.8 27.8,161.6 	"/>
	
		<linearGradient id="SVGID_5_" gradientUnits="userSpaceOnUse" x1="2.5618" y1="64.4773" x2="74.3675" y2="24.005" gradientTransform="matrix(1 0 0 -1 0 199.8898)">
		<stop  offset="0" style="stop-color:#14AAFF"/>
		<stop  offset="1" style="stop-color:#0A3CF0"/>
	</linearGradient>
	<path class="st4" d="M40,146.8h-2.5l-5.7,14.8h3l1.4-3.7h5.2l1.4,3.7h3L40,146.8z M36.6,155.9l2.1-5.8l2,5.8H36.6z"/>
	
		<linearGradient id="SVGID_6_" gradientUnits="userSpaceOnUse" x1="6.1424" y1="70.83" x2="77.9481" y2="30.3577" gradientTransform="matrix(1 0 0 -1 0 199.8898)">
		<stop  offset="0" style="stop-color:#14AAFF"/>
		<stop  offset="1" style="stop-color:#0A3CF0"/>
	</linearGradient>
	<path class="st5" d="M56.9,159.4c0.3-0.6,0.4-1.2,0.4-2c0-0.7-0.1-1.3-0.3-1.7c-0.2-0.5-0.5-0.9-0.9-1.2s-0.9-0.6-1.5-0.8
		s-1.2-0.4-2-0.6c-0.6-0.1-1-0.3-1.5-0.4c-0.4-0.1-0.8-0.3-1.1-0.4c-0.3-0.2-0.5-0.3-0.6-0.5s-0.2-0.5-0.2-0.8
		c0-0.5,0.2-0.9,0.6-1.2c0.4-0.3,1-0.4,1.8-0.4c0.4,0,0.9,0.1,1.3,0.2c0.4,0.1,0.8,0.2,1.2,0.4s0.7,0.3,0.9,0.5
		c0.3,0.2,0.4,0.3,0.5,0.4l1.3-2.3c-0.7-0.4-1.4-0.8-2.3-1.2c-0.9-0.3-1.8-0.5-2.9-0.5c-0.8,0-1.5,0.1-2.1,0.3
		c-0.7,0.2-1.2,0.5-1.7,0.9s-0.9,0.9-1.2,1.5s-0.4,1.3-0.4,2c0,0.6,0.1,1.1,0.3,1.5s0.4,0.8,0.8,1.1s0.8,0.6,1.3,0.8
		s1.1,0.4,1.8,0.6c0.6,0.2,1.1,0.3,1.6,0.5c0.5,0.1,0.9,0.3,1.2,0.5s0.6,0.4,0.8,0.6c0.2,0.2,0.3,0.5,0.3,0.8c0,1-0.8,1.5-2.4,1.5
		c-0.6,0-1.1-0.1-1.7-0.2c-0.5-0.1-1-0.3-1.5-0.5c-0.4-0.2-0.8-0.4-1.2-0.6c-0.3-0.2-0.6-0.4-0.7-0.5l-1.3,2.5
		c0.9,0.6,1.8,1.1,2.9,1.4c1.1,0.3,2.2,0.5,3.3,0.5c0.7,0,1.4-0.1,2.1-0.2c0.7-0.2,1.2-0.4,1.8-0.8C56.2,160.4,56.6,160,56.9,159.4z
		"/>
	
		<linearGradient id="SVGID_7_" gradientUnits="userSpaceOnUse" x1="9.8911" y1="77.4807" x2="81.6967" y2="37.0085" gradientTransform="matrix(1 0 0 -1 0 199.8898)">
		<stop  offset="0" style="stop-color:#14AAFF"/>
		<stop  offset="1" style="stop-color:#0A3CF0"/>
	</linearGradient>
	<polygon class="st6" points="57.8,149.3 62.5,149.3 62.5,161.6 65.4,161.6 65.4,149.3 70.1,149.3 70.1,146.8 57.8,146.8 	"/>
	
		<linearGradient id="SVGID_8_" gradientUnits="userSpaceOnUse" x1="12.3382" y1="81.8225" x2="84.1438" y2="41.3502" gradientTransform="matrix(1 0 0 -1 0 199.8898)">
		<stop  offset="0" style="stop-color:#14AAFF"/>
		<stop  offset="1" style="stop-color:#0A3CF0"/>
	</linearGradient>
	<polygon class="st7" points="74.3,155.2 80.5,155.2 80.5,152.9 74.3,152.9 74.3,149.3 81.5,149.3 81.5,146.8 71.4,146.8 
		71.4,161.6 81.7,161.6 81.7,159.1 74.3,159.1 	"/>
	
		<linearGradient id="SVGID_9_" gradientUnits="userSpaceOnUse" x1="14.9441" y1="86.4458" x2="86.7497" y2="45.9735" gradientTransform="matrix(1 0 0 -1 0 199.8898)">
		<stop  offset="0" style="stop-color:#14AAFF"/>
		<stop  offset="1" style="stop-color:#0A3CF0"/>
	</linearGradient>
	<path class="st8" d="M94,154.3c0.5-0.8,0.7-1.7,0.7-2.6c0-0.6-0.1-1.2-0.4-1.8c-0.2-0.6-0.6-1.1-1-1.6s-0.9-0.8-1.5-1.1
		s-1.2-0.4-1.9-0.4h-6.5v14.8h2.9v-5h2.8l3,5h3.2L92,156C92.8,155.7,93.5,155.1,94,154.3z M91.6,152.6c-0.1,0.3-0.2,0.5-0.4,0.8
		c-0.2,0.2-0.4,0.4-0.6,0.5s-0.5,0.2-0.7,0.2h-3.6v-4.8h3.5c0.3,0,0.5,0.1,0.7,0.2c0.2,0.1,0.5,0.3,0.6,0.5c0.2,0.2,0.3,0.5,0.4,0.8
		s0.2,0.6,0.2,1C91.8,152,91.7,152.4,91.6,152.6z"/>
	
		<linearGradient id="SVGID_10_" gradientUnits="userSpaceOnUse" x1="70.0857" y1="65.449" x2="150.506" y2="20.1212" gradientTransform="matrix(1 0 0 -1 0 199.8898)">
		<stop  offset="0" style="stop-color:#14AAFF"/>
		<stop  offset="1" style="stop-color:#0A3CF0"/>
	</linearGradient>
	<polygon class="st9" points="109.8,159 100.1,146.9 99,146.9 99,161.5 100.5,161.5 100.5,149.6 110,161.5 111.2,161.5 111.2,146.9 
		109.8,146.9 	"/>
	
		<linearGradient id="SVGID_11_" gradientUnits="userSpaceOnUse" x1="73.7443" y1="71.94" x2="154.1646" y2="26.6122" gradientTransform="matrix(1 0 0 -1 0 199.8898)">
		<stop  offset="0" style="stop-color:#14AAFF"/>
		<stop  offset="1" style="stop-color:#0A3CF0"/>
	</linearGradient>
	<path class="st10" d="M125.2,149.1c-0.6-0.7-1.3-1.3-2.2-1.7c-0.8-0.4-1.8-0.6-2.8-0.6s-1.9,0.2-2.7,0.6c-0.8,0.4-1.6,0.9-2.2,1.6
		c-0.6,0.7-1.1,1.5-1.4,2.4s-0.5,1.8-0.5,2.8c0,0.9,0.2,1.8,0.5,2.7s0.8,1.7,1.4,2.4s1.3,1.2,2.2,1.7c0.8,0.4,1.8,0.6,2.8,0.6
		s1.9-0.2,2.7-0.6c0.8-0.4,1.6-0.9,2.2-1.6c0.6-0.7,1.1-1.5,1.4-2.4s0.5-1.8,0.5-2.8c0-0.9-0.2-1.8-0.5-2.7S125.8,149.8,125.2,149.1
		z M125.3,156.4c-0.3,0.7-0.6,1.4-1.1,2s-1,1-1.7,1.4s-1.4,0.5-2.2,0.5c-0.8,0-1.5-0.2-2.2-0.5s-1.2-0.8-1.7-1.4
		c-0.5-0.6-0.8-1.2-1.1-2c-0.3-0.7-0.4-1.5-0.4-2.3s0.1-1.5,0.4-2.2s0.6-1.4,1.1-2s1-1,1.7-1.4c0.7-0.3,1.4-0.5,2.2-0.5
		c0.8,0,1.5,0.2,2.2,0.5s1.2,0.8,1.7,1.3c0.5,0.6,0.9,1.2,1.1,1.9c0.3,0.7,0.4,1.5,0.4,2.3C125.7,154.9,125.5,155.7,125.3,156.4z"/>
	
		<linearGradient id="SVGID_12_" gradientUnits="userSpaceOnUse" x1="76.7955" y1="77.3534" x2="157.2158" y2="32.0256" gradientTransform="matrix(1 0 0 -1 0 199.8898)">
		<stop  offset="0" style="stop-color:#14AAFF"/>
		<stop  offset="1" style="stop-color:#0A3CF0"/>
	</linearGradient>
	<path class="st11" d="M139.5,149c-0.6-0.7-1.3-1.2-2.2-1.6c-0.9-0.4-1.9-0.6-3.1-0.6h-5v14.6h5c1.1,0,2-0.2,2.9-0.5
		s1.6-0.8,2.2-1.5c0.6-0.6,1.1-1.4,1.4-2.3c0.3-0.9,0.5-1.9,0.5-3c0-1-0.1-1.9-0.4-2.8C140.5,150.5,140.1,149.7,139.5,149z
		 M139.4,156.6c-0.2,0.7-0.6,1.4-1.1,1.9s-1,1-1.7,1.3s-1.5,0.5-2.4,0.5h-3.5v-12h3.5c0.9,0,1.7,0.1,2.4,0.4
		c0.7,0.3,1.3,0.7,1.7,1.2c0.5,0.5,0.8,1.2,1.1,1.9c0.2,0.7,0.4,1.5,0.4,2.4C139.8,155,139.7,155.8,139.4,156.6z"/>
	
		<linearGradient id="SVGID_13_" gradientUnits="userSpaceOnUse" x1="80.5009" y1="83.9277" x2="160.9212" y2="38.5999" gradientTransform="matrix(1 0 0 -1 0 199.8898)">
		<stop  offset="0" style="stop-color:#14AAFF"/>
		<stop  offset="1" style="stop-color:#0A3CF0"/>
	</linearGradient>
	<polygon class="st12" points="144.9,154.6 152.1,154.6 152.1,153.4 144.9,153.4 144.9,148.2 153.1,148.2 153.1,146.9 143.5,146.9 
		143.5,161.5 153.3,161.5 153.3,160.2 144.9,160.2 	"/>
	
		<linearGradient id="SVGID_14_" gradientUnits="userSpaceOnUse" x1="78.8926" y1="91.4301" x2="159.3129" y2="46.1023" gradientTransform="matrix(1 0 0 -1 0 199.8898)">
		<stop  offset="0" style="stop-color:#14AAFF"/>
		<stop  offset="1" style="stop-color:#0A3CF0"/>
	</linearGradient>
	<path class="st13" d="M165.6,148.3c-0.4-0.4-0.8-0.8-1.4-1c-0.5-0.3-1.1-0.4-1.7-0.4h-6v14.6h1.4v-5.4h4.7c0.6,0,1.2-0.1,1.7-0.4
		c0.5-0.3,1-0.6,1.3-1c0.4-0.4,0.7-0.9,0.9-1.5s0.3-1.1,0.3-1.7c0-0.6-0.1-1.1-0.3-1.7C166.3,149.3,166,148.8,165.6,148.3z
		 M165.2,152.7c-0.1,0.3-0.2,0.6-0.4,0.9c-0.5,0.7-1.4,1.3-2.3,1.3c0,0-4.7,0-4.7,0v-6.7c0,0,4.5,0,4.5,0c1.1,0,2.1,0.8,2.6,1.8
		c0.3,0.6,0.4,1.2,0.4,1.8C165.3,152,165.3,152.4,165.2,152.7z"/>
	
		<linearGradient id="SVGID_15_" gradientUnits="userSpaceOnUse" x1="82.4211" y1="97.6904" x2="162.8414" y2="52.3626" gradientTransform="matrix(1 0 0 -1 0 199.8898)">
		<stop  offset="0" style="stop-color:#14AAFF"/>
		<stop  offset="1" style="stop-color:#0A3CF0"/>
	</linearGradient>
	<path class="st14" d="M179.6,149.1c-0.6-0.7-1.3-1.3-2.2-1.7c-0.8-0.4-1.8-0.6-2.8-0.6s-1.9,0.2-2.7,0.6c-0.8,0.4-1.6,0.9-2.2,1.6
		s-1.1,1.5-1.4,2.4c-0.3,0.9-0.5,1.8-0.5,2.8c0,0.9,0.2,1.8,0.5,2.7s0.8,1.7,1.4,2.4c0.6,0.7,1.3,1.2,2.2,1.7
		c0.8,0.4,1.8,0.6,2.8,0.6s1.9-0.2,2.7-0.6c0.8-0.4,1.6-0.9,2.2-1.6c0.6-0.7,1.1-1.5,1.4-2.4c0.3-0.9,0.5-1.8,0.5-2.8
		c0-0.9-0.2-1.8-0.5-2.7C180.6,150.6,180.2,149.8,179.6,149.1z M179.6,156.4c-0.3,0.7-0.6,1.4-1.1,2s-1,1-1.7,1.4s-1.4,0.5-2.2,0.5
		s-1.5-0.2-2.2-0.5s-1.2-0.8-1.7-1.4c-0.5-0.6-0.8-1.2-1.1-2c-0.3-0.7-0.4-1.5-0.4-2.3s0.1-1.5,0.4-2.2c0.3-0.7,0.6-1.4,1.1-2
		s1-1,1.7-1.4c0.7-0.3,1.4-0.5,2.2-0.5s1.5,0.2,2.2,0.5s1.2,0.8,1.7,1.3c0.5,0.6,0.9,1.2,1.1,1.9c0.3,0.7,0.4,1.5,0.4,2.3
		C180,154.9,179.9,155.7,179.6,156.4z"/>
	
		<linearGradient id="SVGID_16_" gradientUnits="userSpaceOnUse" x1="86.0134" y1="104.0638" x2="166.4337" y2="58.736" gradientTransform="matrix(1 0 0 -1 0 199.8898)">
		<stop  offset="0" style="stop-color:#14AAFF"/>
		<stop  offset="1" style="stop-color:#0A3CF0"/>
	</linearGradient>
	<path class="st15" d="M194.5,149.1c-0.6-0.7-1.3-1.3-2.2-1.7c-0.8-0.4-1.8-0.6-2.8-0.6s-1.9,0.2-2.7,0.6c-0.8,0.4-1.6,0.9-2.2,1.6
		c-0.6,0.7-1.1,1.5-1.4,2.4c-0.3,0.9-0.5,1.8-0.5,2.8c0,0.9,0.2,1.8,0.5,2.7s0.8,1.7,1.4,2.4c0.6,0.7,1.3,1.2,2.2,1.7
		c0.8,0.4,1.8,0.6,2.8,0.6s1.9-0.2,2.7-0.6c0.8-0.4,1.6-0.9,2.2-1.6c0.6-0.7,1.1-1.5,1.4-2.4c0.3-0.9,0.5-1.8,0.5-2.8
		c0-0.9-0.2-1.8-0.5-2.7C195.6,150.6,195.1,149.8,194.5,149.1z M194.6,156.4c-0.3,0.7-0.6,1.4-1.1,2s-1,1-1.7,1.4s-1.4,0.5-2.2,0.5
		s-1.5-0.2-2.2-0.5s-1.2-0.8-1.7-1.4c-0.5-0.6-0.8-1.2-1.1-2c-0.3-0.7-0.4-1.5-0.4-2.3s0.1-1.5,0.4-2.2c0.3-0.7,0.6-1.4,1.1-2
		s1-1,1.7-1.4c0.7-0.3,1.4-0.5,2.2-0.5s1.5,0.2,2.2,0.5s1.2,0.8,1.7,1.3s0.9,1.2,1.1,1.9c0.3,0.7,0.4,1.5,0.4,2.3
		C194.9,154.9,194.8,155.7,194.6,156.4z"/>
	
		<linearGradient id="SVGID_17_" gradientUnits="userSpaceOnUse" x1="88.3581" y1="108.2237" x2="168.7784" y2="62.8959" gradientTransform="matrix(1 0 0 -1 0 199.8898)">
		<stop  offset="0" style="stop-color:#14AAFF"/>
		<stop  offset="1" style="stop-color:#0A3CF0"/>
	</linearGradient>
	<polygon class="st16" points="200,160.2 200,146.9 198.6,146.9 198.6,161.5 208.4,161.5 208.4,160.2 	"/>
</g>
</svg>
