<?xml version="1.0" encoding="utf-8"?>
<!-- Generator: Adobe Illustrator 23.0.3, SVG Export Plug-In . SVG Version: 6.00 Build 0)  -->
<svg version="1.1" id="Layer_1" xmlns="http://www.w3.org/2000/svg" xmlns:xlink="http://www.w3.org/1999/xlink" x="0px" y="0px"
	 viewBox="0 0 200 200" style="enable-background:new 0 0 200 200;" xml:space="preserve">
<style type="text/css">
	.st0{fill:url(#SVGID_1_);}
	.st1{fill:url(#SVGID_2_);}
	.st2{fill:url(#SVGID_3_);}
	.st3{fill:url(#SVGID_4_);}
	.st4{fill:url(#SVGID_5_);}
	.st5{fill:url(#SVGID_6_);}
	.st6{fill:url(#SVGID_7_);}
	.st7{fill:url(#SVGID_8_);}
	.st8{fill:url(#SVGID_9_);}
	.st9{fill:url(#SVGID_10_);}
	.st10{fill:url(#SVGID_11_);}
	.st11{fill:url(#SVGID_12_);}
	.st12{fill:url(#SVGID_13_);}
	.st13{fill:url(#SVGID_14_);}
	.st14{fill:url(#SVGID_15_);}
	.st15{fill:url(#SVGID_16_);}
	.st16{fill:#8200D2;}
	.st17{fill:#7800DC;}
	.st18{fill:url(#SVGID_17_);}
</style>
<linearGradient id="SVGID_1_" gradientUnits="userSpaceOnUse" x1="114.9198" y1="118.5157" x2="153.1575" y2="99.8659">
	<stop  offset="0" style="stop-color:#FFBE00"/>
	<stop  offset="1" style="stop-color:#FF9100"/>
</linearGradient>
<polygon class="st0" points="147.2,88.5 102.8,117.1 147.2,117.1 "/>
<linearGradient id="SVGID_2_" gradientUnits="userSpaceOnUse" x1="88.5634" y1="115.2904" x2="37.5853" y2="96.8563">
	<stop  offset="0" style="stop-color:#FFBE00"/>
	<stop  offset="1" style="stop-color:#FF9100"/>
</linearGradient>
<polygon class="st1" points="56.4,90.2 96.7,117.1 56.4,117.1 "/>
<linearGradient id="SVGID_3_" gradientUnits="userSpaceOnUse" x1="19.7026" y1="152.9408" x2="75.2257" y2="164.7583">
	<stop  offset="5.586592e-03" style="stop-color:#A032FF"/>
	<stop  offset="0.2669" style="stop-color:#9A2BFB"/>
	<stop  offset="0.6452" style="stop-color:#8B18EF"/>
	<stop  offset="0.9944" style="stop-color:#7800E1"/>
</linearGradient>
<path class="st2" d="M30.9,161.8v-9.9l-3.9,7.4h-1.6l-3.9-7.4v9.9h-2.9v-15h3.1l4.4,8.5l4.5-8.5h3.1v15H30.9z"/>
<linearGradient id="SVGID_4_" gradientUnits="userSpaceOnUse" x1="20.26" y1="150.3221" x2="75.7831" y2="162.1395">
	<stop  offset="5.586592e-03" style="stop-color:#A032FF"/>
	<stop  offset="0.2669" style="stop-color:#9A2BFB"/>
	<stop  offset="0.6452" style="stop-color:#8B18EF"/>
	<stop  offset="0.9944" style="stop-color:#7800E1"/>
</linearGradient>
<path class="st3" d="M40.7,146.8h2.6l5.7,15h-3l-1.4-3.7h-5.2l-1.4,3.7h-3L40.7,146.8z M44,156l-2.1-5.9l-2.2,5.9H44z"/>
<linearGradient id="SVGID_5_" gradientUnits="userSpaceOnUse" x1="20.9451" y1="147.1032" x2="76.4682" y2="158.9207">
	<stop  offset="5.586592e-03" style="stop-color:#A032FF"/>
	<stop  offset="0.2669" style="stop-color:#9A2BFB"/>
	<stop  offset="0.6452" style="stop-color:#8B18EF"/>
	<stop  offset="0.9944" style="stop-color:#7800E1"/>
</linearGradient>
<path class="st4" d="M59,150.8c-0.1-0.1-0.3-0.2-0.5-0.4c-0.3-0.2-0.6-0.3-1-0.5c-0.4-0.2-0.8-0.3-1.2-0.4c-0.4-0.1-0.9-0.2-1.3-0.2
	c-0.8,0-1.4,0.1-1.8,0.4c-0.4,0.3-0.6,0.7-0.6,1.2c0,0.3,0.1,0.6,0.2,0.8c0.1,0.2,0.4,0.4,0.6,0.5c0.3,0.2,0.6,0.3,1.1,0.4
	c0.4,0.1,0.9,0.3,1.5,0.4c0.7,0.2,1.4,0.4,2,0.6c0.6,0.2,1.1,0.5,1.5,0.8c0.4,0.3,0.7,0.7,1,1.2c0.2,0.5,0.3,1.1,0.3,1.7
	c0,0.8-0.2,1.5-0.5,2.1c-0.3,0.6-0.7,1-1.2,1.4c-0.5,0.4-1.1,0.6-1.8,0.8c-0.7,0.2-1.4,0.2-2.1,0.2c-1.1,0-2.2-0.2-3.3-0.5
	c-1.1-0.3-2.1-0.8-3-1.4l1.3-2.5c0.1,0.1,0.4,0.3,0.7,0.5c0.3,0.2,0.7,0.4,1.2,0.6c0.5,0.2,1,0.4,1.5,0.5c0.5,0.1,1.1,0.2,1.7,0.2
	c1.6,0,2.4-0.5,2.4-1.5c0-0.3-0.1-0.6-0.3-0.8c-0.2-0.2-0.4-0.4-0.8-0.6c-0.3-0.2-0.7-0.3-1.2-0.5c-0.5-0.1-1-0.3-1.6-0.5
	c-0.7-0.2-1.3-0.4-1.9-0.6c-0.5-0.2-1-0.5-1.3-0.8c-0.4-0.3-0.6-0.7-0.8-1.1c-0.2-0.4-0.3-0.9-0.3-1.5c0-0.8,0.1-1.4,0.4-2
	c0.3-0.6,0.7-1.1,1.2-1.5c0.5-0.4,1.1-0.7,1.7-0.9c0.7-0.2,1.4-0.3,2.1-0.3c1.1,0,2,0.2,2.9,0.5c0.9,0.3,1.7,0.7,2.3,1.2L59,150.8z"
	/>
<linearGradient id="SVGID_6_" gradientUnits="userSpaceOnUse" x1="21.593" y1="144.0589" x2="77.1162" y2="155.8763">
	<stop  offset="5.586592e-03" style="stop-color:#A032FF"/>
	<stop  offset="0.2669" style="stop-color:#9A2BFB"/>
	<stop  offset="0.6452" style="stop-color:#8B18EF"/>
	<stop  offset="0.9944" style="stop-color:#7800E1"/>
</linearGradient>
<path class="st5" d="M73.7,149.4h-4.8v12.4H66v-12.4h-4.8v-2.6h12.5V149.4z"/>
<linearGradient id="SVGID_7_" gradientUnits="userSpaceOnUse" x1="22.0387" y1="141.9648" x2="77.5619" y2="153.7822">
	<stop  offset="5.586592e-03" style="stop-color:#A032FF"/>
	<stop  offset="0.2669" style="stop-color:#9A2BFB"/>
	<stop  offset="0.6452" style="stop-color:#8B18EF"/>
	<stop  offset="0.9944" style="stop-color:#7800E1"/>
</linearGradient>
<path class="st6" d="M85.5,159.3v2.6H75v-15h10.2v2.6H78v3.6h6.3v2.4H78v3.9H85.5z"/>
<linearGradient id="SVGID_8_" gradientUnits="userSpaceOnUse" x1="22.4987" y1="139.8038" x2="78.0218" y2="151.6212">
	<stop  offset="5.586592e-03" style="stop-color:#A032FF"/>
	<stop  offset="0.2669" style="stop-color:#9A2BFB"/>
	<stop  offset="0.6452" style="stop-color:#8B18EF"/>
	<stop  offset="0.9944" style="stop-color:#7800E1"/>
</linearGradient>
<path class="st7" d="M87.2,161.8v-15h6.6c0.7,0,1.3,0.1,1.9,0.4c0.6,0.3,1.1,0.7,1.5,1.1c0.4,0.5,0.8,1,1,1.6
	c0.2,0.6,0.4,1.2,0.4,1.8c0,1-0.2,1.9-0.7,2.7c-0.5,0.8-1.1,1.4-2,1.7l3.4,5.6h-3.3l-3.1-5h-2.9v5H87.2z M90.1,154.2h3.7
	c0.3,0,0.5-0.1,0.7-0.2c0.2-0.1,0.4-0.3,0.6-0.5c0.2-0.2,0.3-0.5,0.4-0.8c0.1-0.3,0.1-0.6,0.1-1c0-0.4-0.1-0.7-0.2-1
	c-0.1-0.3-0.3-0.6-0.5-0.8c-0.2-0.2-0.4-0.4-0.7-0.5c-0.2-0.1-0.5-0.2-0.7-0.2h-3.5V154.2z"/>
<linearGradient id="SVGID_9_" gradientUnits="userSpaceOnUse" x1="26.8242" y1="135.2464" x2="82.3474" y2="147.0639">
	<stop  offset="5.586592e-03" style="stop-color:#A032FF"/>
	<stop  offset="0.2669" style="stop-color:#9A2BFB"/>
	<stop  offset="0.6452" style="stop-color:#8B18EF"/>
	<stop  offset="0.9944" style="stop-color:#7800E1"/>
</linearGradient>
<polygon class="st8" points="123.4,147.1 118,160.3 115.2,153.5 117.8,147.2 116.4,147.2 114.3,152.5 112.2,147.2 110.8,147.2 
	113.4,153.5 110.6,160.3 105.2,147.1 103.6,147.1 109.9,162 111.1,162 114.3,154.6 117.4,162 118.7,162 125,147.1 "/>
<linearGradient id="SVGID_10_" gradientUnits="userSpaceOnUse" x1="27.2571" y1="133.2126" x2="82.7802" y2="145.03">
	<stop  offset="5.586592e-03" style="stop-color:#A032FF"/>
	<stop  offset="0.2669" style="stop-color:#9A2BFB"/>
	<stop  offset="0.6452" style="stop-color:#8B18EF"/>
	<stop  offset="0.9944" style="stop-color:#7800E1"/>
</linearGradient>
<path class="st9" d="M129.9,147.1l-6.2,14.9h1.6l1.9-4.6h6.7l1.9,4.6h1.5l-6.2-14.9H129.9z M127.5,156.2l3-7.3l3,7.3H127.5z"/>
<linearGradient id="SVGID_11_" gradientUnits="userSpaceOnUse" x1="27.7874" y1="130.7209" x2="83.3106" y2="142.5383">
	<stop  offset="5.586592e-03" style="stop-color:#A032FF"/>
	<stop  offset="0.2669" style="stop-color:#9A2BFB"/>
	<stop  offset="0.6452" style="stop-color:#8B18EF"/>
	<stop  offset="0.9944" style="stop-color:#7800E1"/>
</linearGradient>
<polygon class="st10" points="140.4,147.1 138.9,147.1 138.9,162 149,162 149,160.7 140.4,160.7 "/>
<linearGradient id="SVGID_12_" gradientUnits="userSpaceOnUse" x1="28.2933" y1="128.3441" x2="83.8164" y2="140.1616">
	<stop  offset="5.586592e-03" style="stop-color:#A032FF"/>
	<stop  offset="0.2669" style="stop-color:#9A2BFB"/>
	<stop  offset="0.6452" style="stop-color:#8B18EF"/>
	<stop  offset="0.9944" style="stop-color:#7800E1"/>
</linearGradient>
<polygon class="st11" points="152.1,147.1 150.6,147.1 150.6,162 160.6,162 160.6,160.7 152.1,160.7 "/>
<linearGradient id="SVGID_13_" gradientUnits="userSpaceOnUse" x1="28.9795" y1="125.1198" x2="84.5027" y2="136.9372">
	<stop  offset="5.586592e-03" style="stop-color:#A032FF"/>
	<stop  offset="0.2669" style="stop-color:#9A2BFB"/>
	<stop  offset="0.6452" style="stop-color:#8B18EF"/>
	<stop  offset="0.9944" style="stop-color:#7800E1"/>
</linearGradient>
<polygon class="st12" points="163.7,155 171,155 171,153.8 163.7,153.8 163.7,148.4 172.1,148.4 172.1,147.1 162.3,147.1 162.3,162 
	172.2,162 172.2,160.7 163.7,160.7 "/>
<linearGradient id="SVGID_14_" gradientUnits="userSpaceOnUse" x1="29.6073" y1="122.1701" x2="85.1305" y2="133.9875">
	<stop  offset="5.586592e-03" style="stop-color:#A032FF"/>
	<stop  offset="0.2669" style="stop-color:#9A2BFB"/>
	<stop  offset="0.6452" style="stop-color:#8B18EF"/>
	<stop  offset="0.9944" style="stop-color:#7800E1"/>
</linearGradient>
<polygon class="st13" points="173,147.1 173,148.4 178.3,148.4 178.3,162 179.7,162 179.7,148.4 185,148.4 185,147.1 "/>
<linearGradient id="SVGID_15_" gradientUnits="userSpaceOnUse" x1="35.079" y1="27.5904" x2="78.0918" y2="73.3341">
	<stop  offset="5.586592e-03" style="stop-color:#C346FF"/>
	<stop  offset="0.2367" style="stop-color:#BE3FFD"/>
	<stop  offset="0.5721" style="stop-color:#AF2CF8"/>
	<stop  offset="0.9694" style="stop-color:#980CF1"/>
	<stop  offset="0.9944" style="stop-color:#960AF0"/>
</linearGradient>
<path class="st14" d="M100.9,67.4L100.9,67.4L100.9,67.4L56.4,39.1v8.3v20v13.1l44.5,28.4L100.9,67.4
	C100.9,67.4,100.9,67.4,100.9,67.4z"/>
<linearGradient id="SVGID_16_" gradientUnits="userSpaceOnUse" x1="58.7278" y1="40.6025" x2="126.9055" y2="74.298">
	<stop  offset="5.586592e-03" style="stop-color:#A032FF"/>
	<stop  offset="0.2669" style="stop-color:#9A2BFB"/>
	<stop  offset="0.6452" style="stop-color:#8B18EF"/>
	<stop  offset="0.9944" style="stop-color:#7800E1"/>
</linearGradient>
<path class="st15" d="M148.6,78.3V37.7c0,0-47.6,29.7-47.7,29.7v41.4L148.6,78.3z"/>
<path class="st16" d="M112.2,101.5l32.7-20.8l0,0l0.1-0.1c0,0,0,0,0,0l3.5-2.3V37.7l-3.8,2.4v0l-29.2,18.2c-0.4,0.3-2,1.3-4,2.5
	c0,0-10.6,6.6-10.7,6.7v41.4l0.8-0.5L112.2,101.5z"/>
<polygon class="st17" points="74.8,57.5 56.4,45.9 56.4,65.9 74.8,77.5 "/>
<linearGradient id="SVGID_17_" gradientUnits="userSpaceOnUse" x1="49.1014" y1="52.7035" x2="84.9389" y2="87.6759">
	<stop  offset="0" style="stop-color:#FFBE00"/>
	<stop  offset="1" style="stop-color:#FF9100"/>
</linearGradient>
<polygon class="st18" points="71.1,60 71.1,80 47,64.7 47,44.8 "/>
</svg>
