<?xml version="1.0" encoding="utf-8"?>
<!-- Generator: Adobe Illustrator 23.0.3, SVG Export Plug-In . SVG Version: 6.00 Build 0)  -->
<svg version="1.1" id="Layer_1" xmlns="http://www.w3.org/2000/svg" xmlns:xlink="http://www.w3.org/1999/xlink" x="0px" y="0px"
	 viewBox="0 0 200 200" style="enable-background:new 0 0 200 200;" xml:space="preserve">
<style type="text/css">
	.st0{fill:url(#SVGID_1_);}
	.st1{fill:url(#SVGID_2_);}
	.st2{fill:url(#SVGID_3_);}
	.st3{fill:url(#SVGID_4_);}
	.st4{fill:url(#SVGID_5_);}
	.st5{fill:url(#SVGID_6_);}
	.st6{fill:url(#SVGID_7_);}
	.st7{fill:url(#SVGID_8_);}
	.st8{fill:url(#SVGID_9_);}
	.st9{fill:url(#SVGID_10_);}
	.st10{fill:url(#SVGID_11_);}
	.st11{fill:url(#SVGID_12_);}
	.st12{fill:url(#SVGID_13_);}
	.st13{fill:url(#SVGID_14_);}
	.st14{fill:url(#SVGID_15_);}
	.st15{fill:url(#SVGID_16_);}
	.st16{fill:#8200D2;}
	.st17{fill:#7800DC;}
	.st18{fill:url(#SVGID_17_);}
</style>
<linearGradient id="SVGID_1_" gradientUnits="userSpaceOnUse" x1="114.931" y1="81.3511" x2="153.1687" y2="100.0009" gradientTransform="matrix(1 0 0 -1 0 199.8898)">
	<stop  offset="0" style="stop-color:#FFBE00"/>
	<stop  offset="1" style="stop-color:#FF9100"/>
</linearGradient>
<polygon class="st0" points="147.2,88.5 102.8,117.1 147.2,117.1 "/>
<linearGradient id="SVGID_2_" gradientUnits="userSpaceOnUse" x1="88.5666" y1="84.6081" x2="37.5885" y2="103.0422" gradientTransform="matrix(1 0 0 -1 0 199.8898)">
	<stop  offset="0" style="stop-color:#FFBE00"/>
	<stop  offset="1" style="stop-color:#FF9100"/>
</linearGradient>
<polygon class="st1" points="56.4,90.2 96.7,117.1 56.4,117.1 "/>
<linearGradient id="SVGID_3_" gradientUnits="userSpaceOnUse" x1="20.1585" y1="46.9615" x2="75.6816" y2="35.144" gradientTransform="matrix(1 0 0 -1 0 199.8898)">
	<stop  offset="5.586592e-03" style="stop-color:#A032FF"/>
	<stop  offset="0.2669" style="stop-color:#9A2BFB"/>
	<stop  offset="0.6452" style="stop-color:#8B18EF"/>
	<stop  offset="0.9944" style="stop-color:#7800E1"/>
</linearGradient>
<path class="st2" d="M31.4,161.8v-9.9l-3.9,7.4h-1.6l-3.9-7.4v9.9h-2.9v-15h3.1l4.4,8.5l4.5-8.5h3.1v15H31.4z"/>
<linearGradient id="SVGID_4_" gradientUnits="userSpaceOnUse" x1="20.7219" y1="49.6084" x2="76.245" y2="37.791" gradientTransform="matrix(1 0 0 -1 0 199.8898)">
	<stop  offset="5.586592e-03" style="stop-color:#A032FF"/>
	<stop  offset="0.2669" style="stop-color:#9A2BFB"/>
	<stop  offset="0.6452" style="stop-color:#8B18EF"/>
	<stop  offset="0.9944" style="stop-color:#7800E1"/>
</linearGradient>
<path class="st3" d="M41.2,146.8h2.6l5.7,15h-3l-1.4-3.7h-5.2l-1.4,3.7h-3L41.2,146.8z M44.5,156l-2.1-5.9l-2.2,5.9H44.5z"/>
<linearGradient id="SVGID_5_" gradientUnits="userSpaceOnUse" x1="21.4271" y1="52.9217" x2="76.9502" y2="41.1042" gradientTransform="matrix(1 0 0 -1 0 199.8898)">
	<stop  offset="5.586592e-03" style="stop-color:#A032FF"/>
	<stop  offset="0.2669" style="stop-color:#9A2BFB"/>
	<stop  offset="0.6452" style="stop-color:#8B18EF"/>
	<stop  offset="0.9944" style="stop-color:#7800E1"/>
</linearGradient>
<path class="st4" d="M59.5,150.8c-0.1-0.1-0.3-0.2-0.5-0.4c-0.3-0.2-0.6-0.3-1-0.5s-0.8-0.3-1.2-0.4c-0.4-0.1-0.9-0.2-1.3-0.2
	c-0.8,0-1.4,0.1-1.8,0.4c-0.4,0.3-0.6,0.7-0.6,1.2c0,0.3,0.1,0.6,0.2,0.8c0.1,0.2,0.4,0.4,0.6,0.5c0.3,0.2,0.6,0.3,1.1,0.4
	c0.4,0.1,0.9,0.3,1.5,0.4c0.7,0.2,1.4,0.4,2,0.6c0.6,0.2,1.1,0.5,1.5,0.8s0.7,0.7,1,1.2c0.2,0.5,0.3,1.1,0.3,1.7
	c0,0.8-0.2,1.5-0.5,2.1s-0.7,1-1.2,1.4s-1.1,0.6-1.8,0.8s-1.4,0.2-2.1,0.2c-1.1,0-2.2-0.2-3.3-0.5s-2.1-0.8-3-1.4l1.3-2.5
	c0.1,0.1,0.4,0.3,0.7,0.5s0.7,0.4,1.2,0.6c0.5,0.2,1,0.4,1.5,0.5s1.1,0.2,1.7,0.2c1.6,0,2.4-0.5,2.4-1.5c0-0.3-0.1-0.6-0.3-0.8
	s-0.4-0.4-0.8-0.6c-0.3-0.2-0.7-0.3-1.2-0.5c-0.5-0.1-1-0.3-1.6-0.5c-0.7-0.2-1.3-0.4-1.9-0.6c-0.5-0.2-1-0.5-1.3-0.8
	c-0.4-0.3-0.6-0.7-0.8-1.1c-0.2-0.4-0.3-0.9-0.3-1.5c0-0.8,0.1-1.4,0.4-2c0.3-0.6,0.7-1.1,1.2-1.5s1.1-0.7,1.7-0.9
	c0.7-0.2,1.4-0.3,2.1-0.3c1.1,0,2,0.2,2.9,0.5s1.7,0.7,2.3,1.2L59.5,150.8z"/>
<linearGradient id="SVGID_6_" gradientUnits="userSpaceOnUse" x1="22.0523" y1="55.8594" x2="77.5755" y2="44.042" gradientTransform="matrix(1 0 0 -1 0 199.8898)">
	<stop  offset="5.586592e-03" style="stop-color:#A032FF"/>
	<stop  offset="0.2669" style="stop-color:#9A2BFB"/>
	<stop  offset="0.6452" style="stop-color:#8B18EF"/>
	<stop  offset="0.9944" style="stop-color:#7800E1"/>
</linearGradient>
<path class="st5" d="M74.2,149.4h-4.8v12.4h-2.9v-12.4h-4.8v-2.6h12.5V149.4z"/>
<linearGradient id="SVGID_7_" gradientUnits="userSpaceOnUse" x1="22.4762" y1="57.8507" x2="77.9994" y2="46.0333" gradientTransform="matrix(1 0 0 -1 0 199.8898)">
	<stop  offset="5.586592e-03" style="stop-color:#A032FF"/>
	<stop  offset="0.2669" style="stop-color:#9A2BFB"/>
	<stop  offset="0.6452" style="stop-color:#8B18EF"/>
	<stop  offset="0.9944" style="stop-color:#7800E1"/>
</linearGradient>
<path class="st6" d="M86,159.3v2.6H75.5v-15h10.2v2.6h-7.2v3.6h6.3v2.4h-6.3v3.9H86V159.3z"/>
<linearGradient id="SVGID_8_" gradientUnits="userSpaceOnUse" x1="22.9598" y1="60.1228" x2="78.4829" y2="48.3054" gradientTransform="matrix(1 0 0 -1 0 199.8898)">
	<stop  offset="5.586592e-03" style="stop-color:#A032FF"/>
	<stop  offset="0.2669" style="stop-color:#9A2BFB"/>
	<stop  offset="0.6452" style="stop-color:#8B18EF"/>
	<stop  offset="0.9944" style="stop-color:#7800E1"/>
</linearGradient>
<path class="st7" d="M87.7,161.8v-15h6.6c0.7,0,1.3,0.1,1.9,0.4c0.6,0.3,1.1,0.7,1.5,1.1c0.4,0.5,0.8,1,1,1.6s0.4,1.2,0.4,1.8
	c0,1-0.2,1.9-0.7,2.7s-1.1,1.4-2,1.7l3.4,5.6h-3.3l-3.1-5h-2.9v5L87.7,161.8L87.7,161.8z M90.6,154.2h3.7c0.3,0,0.5-0.1,0.7-0.2
	c0.2-0.1,0.4-0.3,0.6-0.5s0.3-0.5,0.4-0.8s0.1-0.6,0.1-1s-0.1-0.7-0.2-1s-0.3-0.6-0.5-0.8s-0.4-0.4-0.7-0.5
	c-0.2-0.1-0.5-0.2-0.7-0.2h-3.5L90.6,154.2L90.6,154.2z"/>
<linearGradient id="SVGID_9_" gradientUnits="userSpaceOnUse" x1="24.5679" y1="64.6291" x2="80.0911" y2="52.8116" gradientTransform="matrix(1 0 0 -1 0 199.8898)">
	<stop  offset="5.586592e-03" style="stop-color:#A032FF"/>
	<stop  offset="0.2669" style="stop-color:#9A2BFB"/>
	<stop  offset="0.6452" style="stop-color:#8B18EF"/>
	<stop  offset="0.9944" style="stop-color:#7800E1"/>
</linearGradient>
<polygon class="st8" points="121.1,147.1 115.7,160.3 112.9,153.5 115.5,147.2 114.1,147.2 112,152.5 109.9,147.2 108.5,147.2 
	111.1,153.5 108.3,160.3 102.9,147.1 101.3,147.1 107.6,162 108.8,162 112,154.6 115.1,162 116.4,162 122.7,147.1 "/>
<linearGradient id="SVGID_10_" gradientUnits="userSpaceOnUse" x1="24.9991" y1="66.6549" x2="80.5222" y2="54.8375" gradientTransform="matrix(1 0 0 -1 0 199.8898)">
	<stop  offset="5.586592e-03" style="stop-color:#A032FF"/>
	<stop  offset="0.2669" style="stop-color:#9A2BFB"/>
	<stop  offset="0.6452" style="stop-color:#8B18EF"/>
	<stop  offset="0.9944" style="stop-color:#7800E1"/>
</linearGradient>
<path class="st9" d="M127.6,147.1l-6.2,14.9h1.6l1.9-4.6h6.7l1.9,4.6h1.5l-6.2-14.9H127.6z M125.2,156.2l3-7.3l3,7.3H125.2z"/>
<linearGradient id="SVGID_11_" gradientUnits="userSpaceOnUse" x1="25.53" y1="69.1492" x2="81.0532" y2="57.3318" gradientTransform="matrix(1 0 0 -1 0 199.8898)">
	<stop  offset="5.586592e-03" style="stop-color:#A032FF"/>
	<stop  offset="0.2669" style="stop-color:#9A2BFB"/>
	<stop  offset="0.6452" style="stop-color:#8B18EF"/>
	<stop  offset="0.9944" style="stop-color:#7800E1"/>
</linearGradient>
<polygon class="st10" points="138.1,147.1 136.6,147.1 136.6,162 146.7,162 146.7,160.7 138.1,160.7 "/>
<linearGradient id="SVGID_12_" gradientUnits="userSpaceOnUse" x1="26.0371" y1="71.5317" x2="81.5602" y2="59.7142" gradientTransform="matrix(1 0 0 -1 0 199.8898)">
	<stop  offset="5.586592e-03" style="stop-color:#A032FF"/>
	<stop  offset="0.2669" style="stop-color:#9A2BFB"/>
	<stop  offset="0.6452" style="stop-color:#8B18EF"/>
	<stop  offset="0.9944" style="stop-color:#7800E1"/>
</linearGradient>
<polygon class="st11" points="149.8,147.1 148.3,147.1 148.3,162 158.3,162 158.3,160.7 149.8,160.7 "/>
<linearGradient id="SVGID_13_" gradientUnits="userSpaceOnUse" x1="26.7239" y1="74.7587" x2="82.2471" y2="62.9413" gradientTransform="matrix(1 0 0 -1 0 199.8898)">
	<stop  offset="5.586592e-03" style="stop-color:#A032FF"/>
	<stop  offset="0.2669" style="stop-color:#9A2BFB"/>
	<stop  offset="0.6452" style="stop-color:#8B18EF"/>
	<stop  offset="0.9944" style="stop-color:#7800E1"/>
</linearGradient>
<polygon class="st12" points="161.4,155 168.7,155 168.7,153.8 161.4,153.8 161.4,148.4 169.8,148.4 169.8,147.1 160,147.1 160,162 
	169.9,162 169.9,160.7 161.4,160.7 "/>
<linearGradient id="SVGID_14_" gradientUnits="userSpaceOnUse" x1="27.3501" y1="77.701" x2="82.8733" y2="65.8836" gradientTransform="matrix(1 0 0 -1 0 199.8898)">
	<stop  offset="5.586592e-03" style="stop-color:#A032FF"/>
	<stop  offset="0.2669" style="stop-color:#9A2BFB"/>
	<stop  offset="0.6452" style="stop-color:#8B18EF"/>
	<stop  offset="0.9944" style="stop-color:#7800E1"/>
</linearGradient>
<polygon class="st13" points="170.7,147.1 170.7,148.4 176,148.4 176,162 177.4,162 177.4,148.4 182.7,148.4 182.7,147.1 "/>
<linearGradient id="SVGID_15_" gradientUnits="userSpaceOnUse" x1="35.0679" y1="172.2889" x2="78.0807" y2="126.5452" gradientTransform="matrix(1 0 0 -1 0 199.8898)">
	<stop  offset="5.586592e-03" style="stop-color:#C346FF"/>
	<stop  offset="0.2367" style="stop-color:#BE3FFD"/>
	<stop  offset="0.5721" style="stop-color:#AF2CF8"/>
	<stop  offset="0.9694" style="stop-color:#980CF1"/>
	<stop  offset="0.9944" style="stop-color:#960AF0"/>
</linearGradient>
<path class="st14" d="M100.9,67.4L100.9,67.4L100.9,67.4L56.4,39.1v8.3v20v13.1l44.5,28.4V67.4L100.9,67.4z"/>
<linearGradient id="SVGID_16_" gradientUnits="userSpaceOnUse" x1="58.7209" y1="159.2733" x2="126.8986" y2="125.5779" gradientTransform="matrix(1 0 0 -1 0 199.8898)">
	<stop  offset="5.586592e-03" style="stop-color:#A032FF"/>
	<stop  offset="0.2669" style="stop-color:#9A2BFB"/>
	<stop  offset="0.6452" style="stop-color:#8B18EF"/>
	<stop  offset="0.9944" style="stop-color:#7800E1"/>
</linearGradient>
<path class="st15" d="M148.6,78.3V37.7c0,0-47.6,29.7-47.7,29.7v41.4L148.6,78.3z"/>
<path class="st16" d="M112.2,101.5l32.7-20.8l0,0l0.1-0.1l0,0l3.5-2.3V37.7l-3.8,2.4l0,0l-29.2,18.2c-0.4,0.3-2,1.3-4,2.5
	c0,0-10.6,6.6-10.7,6.7v41.4l0.8-0.5L112.2,101.5z"/>
<polygon class="st17" points="74.8,57.5 56.4,45.9 56.4,65.9 74.8,77.5 "/>
<linearGradient id="SVGID_17_" gradientUnits="userSpaceOnUse" x1="49.1324" y1="147.218" x2="84.9699" y2="112.2456" gradientTransform="matrix(1 0 0 -1 0 199.8898)">
	<stop  offset="0" style="stop-color:#FFBE00"/>
	<stop  offset="1" style="stop-color:#FF9100"/>
</linearGradient>
<polygon class="st18" points="71.1,60 71.1,80 47,64.7 47,44.8 "/>
</svg>
